# xmcd
#
# Track frame offsets: 
#        150
#        34125
#        60725
#        90425
#        112837
#        136175
#        165375
#        183225
#        194912
#        223875
#
# Disc length: 3446 seconds
#
# Revision: 1
# Processed by: cddbd v1.5.2PL0 Copyright (c) Steve Scherf et al.
# Submitted via: ExactAudioCopy v0.95a5
#
DISCID=880d740a
DTITLE=121 - er4
DYEAR=1900
DGENRE=Books and Spoken
TTITLE0=0181
TTITLE1=0182
TTITLE2=0183
TTITLE3=0184
TTITLE4=0185
TTITLE5=0186
TTITLE6=0187
TTITLE7=0188
TTITLE8=0189
TTITLE9=0190
EXTD=
EXTT0=
EXTT1=
EXTT2=
EXTT3=
EXTT4=
EXTT5=
EXTT6=
EXTT7=
EXTT8=
EXTT9=
PLAYORDER=
